<?xml version="1.0" encoding="utf-8"?>
<!-- Generator: Adobe Illustrator 21.0.2, SVG Export Plug-In . SVG Version: 6.00 Build 0)  -->
<svg version="1.1" id="Layer_1" xmlns="http://www.w3.org/2000/svg" xmlns:xlink="http://www.w3.org/1999/xlink" x="0px" y="0px"
	 viewBox="0 0 100 100" style="enable-background:new 0 0 100 100;" xml:space="preserve">
<style type="text/css">
	.st0{fill:#272F38;}
</style>
<title>icn_currency/mono/icn_currency_mono</title>
<desc>Created with Sketch.</desc>
<path class="st0" d="M75.2,63.9c5-1.3,10.9-3.5,10.9-7l0,0l0,0c0-4-8.1-6.9-18.7-8.5L49.7,5.3l-17.7,43c-2.8,0.4-5.4,0.9-7.7,1.5
	c-4.9,1.3-10.8,3.5-11,7l0,0l0,0c-0.1,0.8,0.3,1.7,1,2.4c1.7,2,5.7,3.7,11.3,5L13.2,93.9h7.4l12.1-28.4c5.1,0.7,10.9,1.1,17,1.1h0
	c6,0,11.8-0.4,16.9-1.1l12.1,28.4h7.4L73.9,64.2C74.3,64.1,74.8,64,75.2,63.9z M78.2,55.6c-0.3,1.2-2.6,2.3-6.5,3.3L69,52.3
	C74.4,53.2,77.5,54.4,78.2,55.6z M49.7,25.6L59,47.5c-3.1-0.2-6.2-0.3-9.3-0.3l-0.5,0c-3,0-6,0.1-8.8,0.3L49.7,25.6z M21.1,55.7
	L21.1,55.7C21.1,55.7,21.1,55.7,21.1,55.7L21.1,55.7L21.1,55.7z M21.1,55.6c0.8-1.5,3.9-2.7,9.3-3.5l-2.8,6.8
	C23.7,57.9,21.5,56.7,21.1,55.6z M49.7,61c-5.6,0-10.6-0.3-14.7-0.8l3.8-8.9c3.2-0.2,6.9-0.3,11-0.3c4.1,0,7.7,0.1,10.9,0.4l3.7,8.8
	C60.2,60.7,55.3,61,49.7,61z"/>
</svg>
